<svg version="1.1" viewBox="0.0 0.0 334.6981627296588 334.2808398950131" fill="none" stroke="none" stroke-linecap="square" stroke-miterlimit="10" xmlns:xlink="http://www.w3.org/1999/xlink" xmlns="http://www.w3.org/2000/svg"><clipPath id="p.0"><path d="m0 0l334.69815 0l0 334.28085l-334.69815 0l0 -334.28085z" clip-rule="nonzero"/></clipPath><g clip-path="url(#p.0)"><path fill="#000000" fill-opacity="0.0" d="m0 0l334.69815 0l0 334.28085l-334.69815 0z" fill-rule="evenodd"/><path fill="#000000" fill-opacity="0.0" d="m37.406826 119.15223l0 0c0 -58.90747 47.75394 -106.661415 106.66141 -106.661415l0 0c28.288376 0 55.41812 11.23751 75.42102 31.240406c20.002884 20.002895 31.240402 47.13264 31.240402 75.421005l0 0c0 58.90748 -47.753937 106.661415 -106.66142 106.661415l0 0c-58.90747 0 -106.66141 -47.753937 -106.66141 -106.661415z" fill-rule="evenodd"/><path stroke="#000000" stroke-width="24.0" stroke-linejoin="round" stroke-linecap="butt" d="m37.406826 119.15223l0 0c0 -58.90747 47.75394 -106.661415 106.66141 -106.661415l0 0c28.288376 0 55.41812 11.23751 75.42102 31.240406c20.002884 20.002895 31.240402 47.13264 31.240402 75.421005l0 0c0 58.90748 -47.753937 106.661415 -106.66142 106.661415l0 0c-58.90747 0 -106.66141 -47.753937 -106.66141 -106.661415z" fill-rule="evenodd"/><path fill="#000000" fill-opacity="0.0" d="m37.40551 119.15223l0 0c0 -58.90747 47.753944 -106.661415 106.661415 -106.661415l0 0c28.288376 0 55.41812 11.23751 75.42102 31.240406c20.002884 20.002895 31.240402 47.13264 31.240402 75.421005l0 0c0 58.90748 -47.753952 106.661415 -106.66142 106.661415l0 0c-58.90747 0 -106.661415 -47.753937 -106.661415 -106.661415z" fill-rule="evenodd"/><path stroke="#ffffff" stroke-width="8.0" stroke-linejoin="round" stroke-linecap="butt" d="m37.40551 119.15223l0 0c0 -58.90747 47.753944 -106.661415 106.661415 -106.661415l0 0c28.288376 0 55.41812 11.23751 75.42102 31.240406c20.002884 20.002895 31.240402 47.13264 31.240402 75.421005l0 0c0 58.90748 -47.753952 106.661415 -106.66142 106.661415l0 0c-58.90747 0 -106.661415 -47.753937 -106.661415 -106.661415z" fill-rule="evenodd"/><path fill="#ffffff" d="m120.49552 60.635166l50.46691 183.56276l-42.19159 77.61293l25.014038 0c5.266098 0 9.257492 -2.6330566 11.974136 -7.8992004l131.7155 -253.27649l-27.145569 0c-1.9225464 0 -3.8241882 0.6060295 -5.704956 1.8180771c-1.8389587 1.2120438 -3.2808838 2.862934 -4.3257446 4.9526787l-61.626038 123.06478c-1.4210205 2.6748657 -2.6748505 5.3915253 -3.7615051 8.149994c-1.0866547 2.7584534 -2.2151184 5.496002 -3.3853607 8.212677c-0.25076294 -2.7166748 -0.56422424 -5.412445 -0.9403839 -8.087296c-0.3761444 -2.7166748 -0.8985748 -5.412445 -1.5672913 -8.087296l-31.345901 -122.8767c-0.54333496 -2.0479507 -1.4837036 -3.7406464 -2.8211365 -5.0780716c-1.3374176 -1.3792267 -3.3644562 -2.0688438 -6.0811005 -2.0688438z" fill-rule="evenodd"/><path stroke="#000000" stroke-width="8.0" stroke-linejoin="round" stroke-linecap="butt" d="m120.49552 60.635166l50.46691 183.56276l-42.19159 77.61293l25.014038 0c5.266098 0 9.257492 -2.6330566 11.974136 -7.8992004l131.7155 -253.27649l-27.145569 0c-1.9225464 0 -3.8241882 0.6060295 -5.704956 1.8180771c-1.8389587 1.2120438 -3.2808838 2.862934 -4.3257446 4.9526787l-61.626038 123.06478c-1.4210205 2.6748657 -2.6748505 5.3915253 -3.7615051 8.149994c-1.0866547 2.7584534 -2.2151184 5.496002 -3.3853607 8.212677c-0.25076294 -2.7166748 -0.56422424 -5.412445 -0.9403839 -8.087296c-0.3761444 -2.7166748 -0.8985748 -5.412445 -1.5672913 -8.087296l-31.345901 -122.8767c-0.54333496 -2.0479507 -1.4837036 -3.7406464 -2.8211365 -5.0780716c-1.3374176 -1.3792267 -3.3644562 -2.0688438 -6.0811005 -2.0688438z" fill-rule="evenodd"/><path fill="#ffffff" d="m267.45282 126.913155l8.220459 4.251976l-39.81102 77.00787l-8.220474 -4.2519684z" fill-rule="evenodd"/></g></svg>